<svg width="38" height="42" viewBox="0 0 38 42" fill="none" xmlns="http://www.w3.org/2000/svg">
<path d="M0 41.1V9.6L24 0V9.1H28V17.1C24.1 17.1 20.792 18.4587 18.076 21.176C15.36 23.8933 14.0013 27.2013 14 31.1C14 33 14.3667 34.8167 15.1 36.55C15.8333 38.2833 16.8833 39.8 18.25 41.1H0ZM12 9.1H20V6L12 9.1ZM28 41.1C25.2333 41.1 22.8753 40.1247 20.926 38.174C18.9767 36.2233 18.0013 33.8653 18 31.1C17.9987 28.3347 18.974 25.9767 20.926 24.026C22.878 22.0753 25.236 21.1 28 21.1C30.764 21.1 33.1227 22.0753 35.076 24.026C37.0293 25.9767 38.004 28.3347 38 31.1C37.996 33.8653 37.0207 36.224 35.074 38.176C33.1273 40.128 30.7693 41.1027 28 41.1ZM25.5 36.1L33.5 31.1L25.5 26.1V36.1Z" fill="url(#paint0_linear_337_146)"/>
<defs>
<linearGradient id="paint0_linear_337_146" x1="19.0751" y1="5.87143" x2="19.0751" y2="35.2286" gradientUnits="userSpaceOnUse">
<stop stop-color="#FEEC8D"/>
<stop offset="1" stop-color="#E5C316"/>
</linearGradient>
</defs>
</svg>
